<svg xmlns="http://www.w3.org/2000/svg" xmlns:xlink="http://www.w3.org/1999/xlink" viewBox="0 0 1128 552">
  <defs>




<svg id="left-arrow-round" xmlns="http://www.w3.org/2000/svg" viewBox="0 0 24 24.125">
      <g transform="translate(-170.843 -384.877)">
        <path
          d="M172.788,396.993a10.055,10.055,0,0,0,20.11-.052v-.054a10.055,10.055,0,1,0-20.11.106Zm1.489-.093a8.587,8.587,0,1,1,0,.048Z" />
        <path
          d="M177.964,397.355a.713.713,0,0,0,.065.1.19.19,0,0,0,.034.045l3.339,3.257a.65.65,0,0,0,.923-.024.671.671,0,0,0-.022-.937l-2.169-2.115h7.022a.664.664,0,0,0,.66-.662v0a.666.666,0,0,0-.661-.66h-7.189l2.339-2.281a.669.669,0,0,0,.2-.48.66.66,0,0,0-.176-.451.65.65,0,0,0-.925-.025l-3.335,3.258a.653.653,0,0,0-.192.465c0,.043.005.087.011.074,0,.016-.017.109-.017.11a.522.522,0,0,0,.03.175A.6.6,0,0,0,177.964,397.355Z" />
      </g>
    </svg>

    <svg id="right-arrow-round" xmlns="http://www.w3.org/2000/svg" viewBox="0 0 24 24.125">
      <g transform="translate(-170.843 -420.633)">
        <path
          d="M192.9,432.643a10.055,10.055,0,0,0-20.11.052v.054a10.055,10.055,0,0,0,20.11-.106Zm-1.49.092a8.588,8.588,0,1,1,0-.047Z" />
        <path
          d="M187.722,432.281a.667.667,0,0,0-.066-.1.164.164,0,0,0-.033-.045l-3.339-3.257a.65.65,0,0,0-.923.023.671.671,0,0,0-.181.458.664.664,0,0,0,.2.48l2.169,2.115H178.53a.663.663,0,0,0-.66.662v0a.665.665,0,0,0,.661.66h7.189l-2.34,2.281a.673.673,0,0,0-.2.481.663.663,0,0,0,.177.451.649.649,0,0,0,.924.024l3.335-3.257a.654.654,0,0,0,.192-.465c0-.043,0-.087-.011-.074.005-.017.017-.109.017-.11a.529.529,0,0,0-.03-.176A.609.609,0,0,0,187.722,432.281Z" />
      </g>
    </svg>



<svg xmlns="http://www.w3.org/2000/svg" height="24px" viewBox="0 -960 960 960" width="24px" fill="#e8eaed"><path d="m480-320 160-160-160-160-56 56 64 64H320v80h168l-64 64 56 56Zm0 240q-83 0-156-31.5T197-197q-54-54-85.5-127T80-480q0-83 31.5-156T197-763q54-54 127-85.5T480-880q83 0 156 31.5T763-763q54 54 85.5 127T880-480q0 83-31.5 156T763-197q-54 54-127 85.5T480-80Zm0-80q134 0 227-93t93-227q0-134-93-227t-227-93q-134 0-227 93t-93 227q0 134 93 227t227 93Zm0-320Z"/></svg> 

<svg id="logout"
 xmlns="http://www.w3.org/2000/svg" height="24px" viewBox="0 -960 960 960" width="24px" fill="#e8eaed"><path d="M200-120q-33 0-56.5-23.5T120-200v-560q0-33 23.5-56.5T200-840h280v80H200v560h280v80H200Zm440-160-55-58 102-102H360v-80h327L585-622l55-58 200 200-200 200Z"/></svg>

    </defs>
    </svg>